<svg width="60" height="60" viewBox="0 0 60 60" fill="none" xmlns="http://www.w3.org/2000/svg">
<path d="M38.1818 32.7273H21.8182V27.2727H38.1818V32.7273ZM10.9091 16.3636V21.8182H5.45455V27.2727C4.73123 27.2727 4.03754 27.5601 3.52608 28.0715C3.01462 28.583 2.72728 29.2767 2.72728 30C2.72728 30.7233 3.01462 31.417 3.52608 31.9285C4.03754 32.4399 4.73123 32.7273 5.45455 32.7273V38.1818H10.9091V43.6364H19.0909V16.3636H10.9091ZM54.5455 27.2727V21.8182H49.0909V16.3636H40.9091V43.6364H49.0909V38.1818H54.5455V32.7273C55.2688 32.7273 55.9625 32.4399 56.4739 31.9285C56.9854 31.417 57.2727 30.7233 57.2727 30C57.2727 29.2767 56.9854 28.583 56.4739 28.0715C55.9625 27.5601 55.2688 27.2727 54.5455 27.2727Z" fill="#DFAA5B"/>
</svg>
