<svg width="60" height="60" viewBox="0 0 60 60" fill="none" xmlns="http://www.w3.org/2000/svg">
<path opacity="0.3" d="M55 52.5001C52.225 52.5001 50.675 51.5751 49.55 50.9001C48.625 50.3501 48.05 50.0001 46.675 50.0001C45.275 50.0001 44.725 50.3251 43.8 50.9001C42.65 51.5751 41.125 52.5001 38.35 52.5001C35.575 52.5001 34.025 51.5751 32.9 50.9001C31.975 50.3501 31.4 50.0001 30.025 50.0001C28.625 50.0001 28.075 50.3251 27.15 50.9001C26 51.5751 24.45 52.5001 21.675 52.5001C18.9 52.5001 17.35 51.5751 16.225 50.9001C15.3 50.3251 14.725 50.0001 13.35 50.0001C11.975 50.0001 11.4 50.3251 10.475 50.9001C9.325 51.5751 7.775 52.5001 5 52.5001V47.5001C6.4 47.5001 6.95 47.1751 7.875 46.6001C9.025 45.9251 10.575 45.0001 13.35 45.0001C16.125 45.0001 17.675 45.9251 18.8 46.6001C19.725 47.1751 20.275 47.5001 21.675 47.5001C23.075 47.5001 23.625 47.1751 24.55 46.6001C25.7 45.9251 27.25 45.0001 30.025 45.0001C32.8 45.0001 34.35 45.9251 35.475 46.6001C36.4 47.1501 36.975 47.5001 38.35 47.5001C39.725 47.5001 40.3 47.1751 41.225 46.6001C42.35 45.9251 43.9 45.0001 46.675 45.0001C49.45 45.0001 51 45.9251 52.125 46.6001C53.05 47.1751 53.6 47.5001 55 47.5001V52.5001ZM55 41.2501C52.225 41.2501 50.675 40.3251 49.55 39.6501C48.625 39.1001 48.05 38.7501 46.675 38.7501C45.275 38.7501 44.725 39.0751 43.8 39.6501C42.675 40.3251 41.125 41.2501 38.35 41.2501C35.575 41.2501 34.025 40.3251 32.9 39.6501C31.975 39.1001 31.4 38.7501 30.025 38.7501C28.625 38.7501 28.075 39.0751 27.15 39.6501C26.025 40.3251 24.475 41.2501 21.7 41.2501C18.925 41.2501 17.375 40.3251 16.25 39.6501C15.325 39.1001 14.75 38.7501 13.375 38.7501C12 38.7501 11.425 39.0751 10.5 39.6501C9.325 40.3251 7.775 41.2501 5 41.2501V36.2501C6.4 36.2501 6.95 35.9251 7.875 35.3501C9 34.6751 10.55 33.7501 13.325 33.7501C16.1 33.7501 17.65 34.6751 18.775 35.3501C19.7 35.9001 20.275 36.2501 21.65 36.2501C23.05 36.2501 23.6 35.9251 24.525 35.3501C25.65 34.6751 27.2 33.7501 29.975 33.7501C32.75 33.7501 34.3 34.6751 35.425 35.3501C36.35 35.9001 36.925 36.2501 38.3 36.2501C39.675 36.2501 40.25 35.9251 41.175 35.3501C42.3 34.6751 43.85 33.7501 46.625 33.7501C49.4 33.7501 50.95 34.6751 52.075 35.3501C53 35.9001 53.575 36.2501 54.95 36.2501V41.2501H55ZM21.675 30.0001C23.075 30.0001 23.625 29.6751 24.55 29.1001C25.7 28.4251 27.25 27.5001 30.025 27.5001C32.8 27.5001 34.35 28.4251 35.475 29.1001C36.4 29.6501 36.975 30.0001 38.35 30.0001C39.725 30.0001 40.3 29.6751 41.225 29.1001C41.525 28.9251 41.875 28.7251 42.25 28.5251L26.2 12.5001C22.325 8.62506 18.75 7.47506 12.5 7.50006V13.7501C17.05 13.7251 19.725 14.7251 22.5 17.5001L25 20.0001L16.875 28.1251C17.65 28.4251 18.275 28.8001 18.8 29.1001C19.725 29.6751 20.275 30.0001 21.675 30.0001Z" fill="black"/>
<path opacity="0.3" d="M41.25 20C44.7018 20 47.5 17.2018 47.5 13.75C47.5 10.2982 44.7018 7.5 41.25 7.5C37.7982 7.5 35 10.2982 35 13.75C35 17.2018 37.7982 20 41.25 20Z" fill="black"/>
<path d="M55 41.2501H54.95H55ZM25 20.0001L16.875 28.1251C17.65 28.4251 18.275 28.8001 18.8 29.1001C19.725 29.6751 20.275 30.0001 21.675 30.0001C23.075 30.0001 23.625 29.6751 24.55 29.1001C25.7 28.4251 27.25 27.5001 30.025 27.5001C32.8 27.5001 34.35 28.4251 35.475 29.1001C36.4 29.6501 36.975 30.0001 38.35 30.0001C39.725 30.0001 40.3 29.6751 41.225 29.1001C41.525 28.9251 41.875 28.7251 42.25 28.5251L26.2 12.5001C22.325 8.62506 18.75 7.47506 12.5 7.50006V13.7501C17.05 13.7251 19.725 14.7251 22.5 17.5001L25 20.0001ZM13.375 38.7501C14.75 38.7501 15.325 39.1001 16.25 39.6501C17.375 40.3251 18.925 41.2501 21.7 41.2501C24.475 41.2501 26.025 40.3251 27.15 39.6501C28.075 39.0751 28.625 38.7501 30.025 38.7501C31.4 38.7501 31.975 39.1001 32.9 39.6501C34.025 40.3251 35.575 41.2501 38.35 41.2501C41.125 41.2501 42.675 40.3251 43.8 39.6501C44.725 39.0751 45.275 38.7501 46.675 38.7501C48.05 38.7501 48.625 39.1001 49.55 39.6501C50.675 40.3251 52.2 41.2251 54.95 41.2501V36.2501C53.575 36.2501 53 35.9001 52.075 35.3501C50.95 34.6751 49.4 33.7501 46.625 33.7501C43.85 33.7501 42.3 34.6751 41.175 35.3501C40.25 35.9251 39.675 36.2501 38.3 36.2501C36.925 36.2501 36.35 35.9001 35.425 35.3501C34.3 34.6751 32.75 33.7501 29.975 33.7501C27.2 33.7501 25.65 34.6751 24.525 35.3501C23.6 35.9251 23.05 36.2501 21.65 36.2501C20.275 36.2501 19.7 35.9001 18.775 35.3501C17.65 34.6751 16.1 33.7501 13.325 33.7501C10.55 33.7501 9 34.6751 7.875 35.3501C6.95 35.9251 6.4 36.2501 5 36.2501V41.2501C7.775 41.2501 9.325 40.3251 10.5 39.6501C11.425 39.0751 12 38.7501 13.375 38.7501ZM46.675 45.0001C43.9 45.0001 42.35 45.9251 41.225 46.6001C40.3 47.1751 39.725 47.5001 38.35 47.5001C36.975 47.5001 36.4 47.1501 35.475 46.6001C34.35 45.9251 32.8 45.0001 30.025 45.0001C27.25 45.0001 25.7 45.9251 24.55 46.6001C23.625 47.1751 23.075 47.5001 21.675 47.5001C20.275 47.5001 19.725 47.1751 18.8 46.6001C17.675 45.9251 16.125 45.0001 13.35 45.0001C10.575 45.0001 9.025 45.9251 7.875 46.6001C6.95 47.1751 6.4 47.5001 5 47.5001V52.5001C7.775 52.5001 9.325 51.5751 10.475 50.9001C11.4 50.3251 11.975 50.0001 13.35 50.0001C14.725 50.0001 15.3 50.3251 16.225 50.9001C17.35 51.5751 18.9 52.5001 21.675 52.5001C24.45 52.5001 26 51.5751 27.15 50.9001C28.075 50.3251 28.625 50.0001 30.025 50.0001C31.4 50.0001 31.975 50.3501 32.9 50.9001C34.025 51.5751 35.575 52.5001 38.35 52.5001C41.125 52.5001 42.65 51.5751 43.8 50.9001C44.725 50.3251 45.275 50.0001 46.675 50.0001C48.05 50.0001 48.625 50.3501 49.55 50.9001C50.675 51.5751 52.225 52.5001 55 52.5001V47.5001C53.6 47.5001 53.05 47.1751 52.125 46.6001C51 45.9251 49.45 45.0001 46.675 45.0001Z" fill="#DFAA5B"/>
<path d="M41.25 20C44.7018 20 47.5 17.2018 47.5 13.75C47.5 10.2982 44.7018 7.5 41.25 7.5C37.7982 7.5 35 10.2982 35 13.75C35 17.2018 37.7982 20 41.25 20Z" fill="#DFAA5B"/>
</svg>
