<svg width="60" height="60" viewBox="0 0 60 60" fill="none" xmlns="http://www.w3.org/2000/svg">
<path d="M51.93 25.39L48.51 15.1275C48.0139 13.6337 47.0596 12.3342 45.7828 11.4138C44.506 10.4933 42.9715 9.9986 41.3975 10H35V5H25V10H18.6025C17.0285 9.9986 15.494 10.4933 14.2172 11.4138C12.9404 12.3342 11.9861 13.6337 11.49 15.1275L8.07 25.39C7.16153 25.7712 6.38569 26.4119 5.83961 27.2319C5.29353 28.0519 5.00147 29.0148 5 30V42.5C5 44.3825 6.0575 46.005 7.5975 46.8575C7.565 47.0225 7.5 47.1725 7.5 47.345V52.5C7.5 53.163 7.76339 53.7989 8.23223 54.2678C8.70107 54.7366 9.33696 55 10 55H12.5C13.163 55 13.7989 54.7366 14.2678 54.2678C14.7366 53.7989 15 53.163 15 52.5V47.5H45V52.5C45 53.163 45.2634 53.7989 45.7322 54.2678C46.2011 54.7366 46.837 55 47.5 55H50C50.663 55 51.2989 54.7366 51.7678 54.2678C52.2366 53.7989 52.5 53.163 52.5 52.5V47.345C52.5 47.1725 52.435 47.02 52.4025 46.8575C53.186 46.4303 53.8404 45.8006 54.2973 45.0341C54.7543 44.2675 54.9969 43.3924 55 42.5V30C55 27.9275 53.73 26.1475 51.93 25.39ZM10 42.5V30H50L50.005 42.5H10ZM18.6025 15H41.395C42.4725 15 43.4275 15.685 43.7675 16.71L46.5325 25H13.4675L16.23 16.71C16.3959 16.212 16.7143 15.7788 17.1401 15.4719C17.566 15.165 18.0776 14.9999 18.6025 15Z" fill="#DFAA5B"/>
<path d="M16.25 40C18.3211 40 20 38.3211 20 36.25C20 34.1789 18.3211 32.5 16.25 32.5C14.1789 32.5 12.5 34.1789 12.5 36.25C12.5 38.3211 14.1789 40 16.25 40Z" fill="#DFAA5B"/>
<path d="M43.75 40C45.8211 40 47.5 38.3211 47.5 36.25C47.5 34.1789 45.8211 32.5 43.75 32.5C41.6789 32.5 40 34.1789 40 36.25C40 38.3211 41.6789 40 43.75 40Z" fill="#DFAA5B"/>
</svg>
