<svg width="60" height="60" viewBox="0 0 60 60" fill="none" xmlns="http://www.w3.org/2000/svg">
<path d="M30 54.2334C32.7614 54.2334 35 51.9948 35 49.2334C35 46.472 32.7614 44.2334 30 44.2334C27.2386 44.2334 25 46.472 25 49.2334C25 51.9948 27.2386 54.2334 30 54.2334Z" fill="#DFAA5B"/>
<path d="M54.6 15.6333C47.2125 11.0101 38.6733 8.55835 29.9583 8.55835C21.2434 8.55835 12.7042 11.0101 5.31666 15.6333C5.02977 15.8086 4.78089 16.0395 4.58471 16.3125C4.38854 16.5855 4.24905 16.895 4.17448 17.2228C4.09991 17.5506 4.09177 17.8901 4.15054 18.2211C4.20931 18.5521 4.3338 18.8679 4.51666 19.15L4.69999 19.4333C5.05151 19.964 5.59334 20.3394 6.21363 20.482C6.83392 20.6247 7.48532 20.5237 8.03333 20.2C14.5891 16.081 22.1743 13.8958 29.9167 13.8958C37.659 13.8958 45.2442 16.081 51.8 20.2C52.348 20.5237 52.9994 20.6247 53.6197 20.482C54.24 20.3394 54.7818 19.964 55.1333 19.4333L55.3167 19.15C55.5033 18.8729 55.6329 18.5615 55.6979 18.2338C55.7629 17.9062 55.7621 17.5688 55.6954 17.2415C55.6286 16.9142 55.4974 16.6034 55.3094 16.3273C55.1213 16.0512 54.8802 15.8153 54.6 15.6333Z" fill="#DFAA5B"/>
<path d="M48.0333 25.7334C42.6027 22.3663 36.3398 20.5822 29.95 20.5822C23.5602 20.5822 17.2973 22.3663 11.8667 25.7334C11.5848 25.9113 11.341 26.1435 11.1496 26.4164C10.9582 26.6893 10.8229 26.9975 10.7515 27.3231C10.6802 27.6487 10.6743 27.9853 10.7341 28.3132C10.7939 28.6412 10.9183 28.9539 11.1 29.2334L11.2833 29.5167C11.6348 30.0474 12.1767 30.4227 12.797 30.5654C13.4173 30.7081 14.0687 30.6071 14.6167 30.2834C19.2101 27.4307 24.5095 25.9189 29.9167 25.9189C35.3238 25.9189 40.6233 27.4307 45.2167 30.2834C45.7647 30.6071 46.4161 30.7081 47.0364 30.5654C47.6567 30.4227 48.1985 30.0474 48.55 29.5167L48.7333 29.2334C48.9181 28.9579 49.0466 28.6487 49.1115 28.3233C49.1763 27.998 49.1762 27.6631 49.1112 27.3378C49.0461 27.0126 48.9174 26.7034 48.7324 26.428C48.5474 26.1527 48.3099 25.9166 48.0333 25.7334Z" fill="#DFAA5B"/>
<path d="M41.4667 35.8166C37.9891 33.7256 34.0078 32.6209 29.95 32.6209C25.8922 32.6209 21.911 33.7256 18.4333 35.8166C18.152 35.9929 17.9086 36.2235 17.7174 36.4949C17.5262 36.7664 17.3909 37.0732 17.3195 37.3974C17.2482 37.7217 17.2421 38.057 17.3017 38.3836C17.3613 38.7102 17.4854 39.0217 17.6667 39.2999L17.8333 39.5666C18.2001 40.1086 18.7624 40.4877 19.4024 40.6244C20.0424 40.7611 20.7105 40.6448 21.2667 40.2999C23.8982 38.7507 26.8963 37.9338 29.95 37.9338C33.0037 37.9338 36.0018 38.7507 38.6333 40.2999C39.1915 40.6432 39.861 40.7569 40.5012 40.617C41.1414 40.4772 41.7025 40.0947 42.0667 39.5499L42.2333 39.2832C42.4142 39.0064 42.538 38.6962 42.5974 38.3708C42.6568 38.0455 42.6506 37.7115 42.5792 37.3886C42.5078 37.0657 42.3726 36.7603 42.1815 36.4903C41.9905 36.2204 41.7474 35.9913 41.4667 35.8166Z" fill="#DFAA5B"/>
</svg>
